<svg xmlns="http://www.w3.org/2000/svg" viewBox="0 0 165.24 38.43"><g id="Layer_2" data-name="Layer 2"><g id="Layer_1-2" data-name="Layer 1"><path d="M0,1.11V5.6A1.11,1.11,0,0,0,1.11,6.71H13.48a12.1,12.1,0,0,1,6.06,1.42,9.08,9.08,0,0,1,3.73,4.14,16.27,16.27,0,0,1,1.3,6.88,16.62,16.62,0,0,1-1.29,7,9.11,9.11,0,0,1-3.71,4.17,11.88,11.88,0,0,1-6.09,1.44H8.07A1.11,1.11,0,0,1,7,30.43l1.8-11.49a1.12,1.12,0,0,0-1.1-1.28H1.11A1.11,1.11,0,0,0,0,18.77V37.32a1.11,1.11,0,0,0,1.11,1.11H14.18A19.93,19.93,0,0,0,24,36.13a15.37,15.37,0,0,0,6.3-6.66,23,23,0,0,0,2.17-10.4A22.43,22.43,0,0,0,30.29,8.78L30,8.18a1.11,1.11,0,0,1,1-1.62H47.25a1.11,1.11,0,0,1,1,1.5L37.41,36.92a1.11,1.11,0,0,0,1,1.51h6.86a1.12,1.12,0,0,0,1.06-.77L58.15,1.45A1.11,1.11,0,0,0,57.1,0h-56A1.11,1.11,0,0,0,0,1.11Z" style="fill:#ffffff"/><path d="M88.77.7,81.39,19.11a1.12,1.12,0,0,1-2.07,0L72,.7a1.12,1.12,0,0,0-1-.7H65.13a1.12,1.12,0,0,0-1.06.77L52.29,37a1.11,1.11,0,0,0,1.05,1.46h7.54A1.13,1.13,0,0,0,62,37.55l5.46-25.14a1.11,1.11,0,0,1,2.12-.17l9.77,24.53a1.11,1.11,0,0,0,2.07,0l9.77-24.53a1.11,1.11,0,0,1,2.12.17l5.47,25.14a1.11,1.11,0,0,0,1.08.88h7.54A1.12,1.12,0,0,0,108.43,37L96.64.77A1.11,1.11,0,0,0,95.58,0H89.8A1.11,1.11,0,0,0,88.77.7Z" style="fill:#ffffff"/><path d="M145.71,8.13a12,12,0,0,1,6-1.42h12.37a1.11,1.11,0,0,0,1.11-1.11V1.11A1.11,1.11,0,0,0,164.13,0H102a1.12,1.12,0,0,0-1.06,1.47L102.45,6a.82.82,0,0,0,.78.55h10.45a1.11,1.11,0,0,1,1.11,1.11l0,29.65a1.11,1.11,0,0,0,1.11,1.11h7.43a1.11,1.11,0,0,0,1.11-1.19L122.29,7.75a1.12,1.12,0,0,1,1.11-1.19h10.87a1.11,1.11,0,0,1,1,1.62l-.31.6a22.51,22.51,0,0,0-2.18,10.34,23,23,0,0,0,2.16,10.35,15.37,15.37,0,0,0,6.3,6.66,20,20,0,0,0,9.83,2.3h13.07a1.11,1.11,0,0,0,1.11-1.11V18.77a1.11,1.11,0,0,0-1.11-1.11h-6.56a1.1,1.1,0,0,0-1.09,1.28l1.79,11.49a1.1,1.1,0,0,1-1.09,1.28h-5.42a11.88,11.88,0,0,1-6.09-1.44A9.22,9.22,0,0,1,142,26.1a16.7,16.7,0,0,1-1.29-7,16.19,16.19,0,0,1,1.3-6.83A9.1,9.1,0,0,1,145.71,8.13Z" style="fill:#ffffff"/></g></g></svg>